<?xml version="1.0" standalone="no"?><!DOCTYPE svg PUBLIC "-//W3C//DTD SVG 1.1//EN" "http://www.w3.org/Graphics/SVG/1.1/DTD/svg11.dtd"><svg t="1719645613339" class="icon" viewBox="0 0 1024 1024" version="1.1" xmlns="http://www.w3.org/2000/svg" p-id="5228" xmlns:xlink="http://www.w3.org/1999/xlink" width="16" height="16"><path d="M512 928H128a32 32 0 0 1-26.88-49.92L345.6 512 101.12 145.92A32 32 0 0 1 128 96h384a32 32 0 0 1 0 64H187.52l223.36 334.08a33.28 33.28 0 0 1 0 35.84L187.52 864H512a32 32 0 0 1 0 64z m128 0a36.48 36.48 0 0 1-17.92-5.12 32.64 32.64 0 0 1-8.96-44.8l256-384a32 32 0 0 1 53.76 35.84l-256 384A33.28 33.28 0 0 1 640 928z" fill="#4D4D4D" p-id="5229"></path><path d="M896 928a33.28 33.28 0 0 1-26.88-14.08l-256-384a32 32 0 1 1 53.76-35.84l256 384a32.64 32.64 0 0 1-8.96 44.8A36.48 36.48 0 0 1 896 928z m96-704H672a32 32 0 0 1 0-64h320a32 32 0 0 1 0 64z" fill="#4D4D4D" p-id="5230"></path><path d="M832 384a32 32 0 0 1-32-32V32a32 32 0 0 1 64 0v320a32 32 0 0 1-32 32z" fill="#4D4D4D" p-id="5231"></path></svg>