<?xml version="1.0" standalone="no"?><!DOCTYPE svg PUBLIC "-//W3C//DTD SVG 1.1//EN" "http://www.w3.org/Graphics/SVG/1.1/DTD/svg11.dtd"><svg t="1735099054222" class="icon" viewBox="0 0 1024 1024" version="1.1" xmlns="http://www.w3.org/2000/svg" p-id="3980" xmlns:xlink="http://www.w3.org/1999/xlink" width="16" height="16"><path d="M258.56 367.1552l63.36 63.36-108.5952 108.6464a192 192 0 0 0 267.0592 275.84l4.4544-4.3264 27.5712-27.5456a280.064 280.064 0 0 0 24.7552 101.376c-110.5664 99.3792-280.832 95.8976-387.2-10.4704-109.9776-109.9776-109.9776-288.256 0-398.2336l108.5952-108.6464z m615.4752-217.1904c86.5792 86.5536 104.9856 215.4752 55.296 320.0512a279.1936 279.1936 0 0 0-85.1456-30.2848 192 192 0 0 0-300.5696-230.7328l-4.4544 4.3264-108.6464 108.5952-63.36-63.36 108.6464-108.5952c109.9776-109.9776 288.256-109.9776 398.2336 0z" fill="#3B64F8" p-id="3981"></path><path d="M638.713535 312.87873m36.203867 36.203868l0 0q36.203867 36.203867 0 72.407734l-253.42707 253.42707q-36.203867 36.203867-72.407734 0l0 0q-36.203867-36.203867 0-72.407734l253.42707-253.42707q36.203867-36.203867 72.407734 0Z" fill="#FB4988" p-id="3982"></path><path d="M793.6 512a204.8 204.8 0 0 1 204.8 204.8v51.2a204.8 204.8 0 1 1-409.6 0v-51.2a204.8 204.8 0 0 1 204.8-204.8z m128 256H665.6a128 128 0 0 0 255.872 5.5552L921.6 768z m-253.44-76.8l99.84-0.0256v-99.84a128.1536 128.1536 0 0 0-99.84 99.84z m151.04-99.84V691.2h99.84A128.1536 128.1536 0 0 0 819.2 591.36z" fill="#3B64F8" p-id="3983"></path></svg>