<?xml version="1.0" standalone="no"?><!DOCTYPE svg PUBLIC "-//W3C//DTD SVG 1.1//EN" "http://www.w3.org/Graphics/SVG/1.1/DTD/svg11.dtd"><svg t="1716533645458" class="icon" viewBox="0 0 1024 1024" version="1.1" xmlns="http://www.w3.org/2000/svg" p-id="13444" width="16" height="16" xmlns:xlink="http://www.w3.org/1999/xlink"><path d="M277.312 298.666667v63.978666L213.333333 362.666667l-0.021333 106.645333H810.666667V362.666667l-64.021334-0.021334V298.666667H810.666667a64 64 0 0 1 64 64v426.666666a64 64 0 0 1-64 64H213.333333a64 64 0 0 1-64-64V362.666667a64 64 0 0 1 64-64h63.978667zM810.666667 533.312H213.312L213.333333 789.333333h597.333334V533.312zM640 149.333333a64 64 0 0 1 64 64v149.333334H320v-149.333334a64 64 0 0 1 64-64h256z m0 64H384v85.333334h256v-85.333334z" fill="#0D50C1" p-id="13445"></path><path d="M618.666667 469.333333v192H405.333333v-192h213.333334z m-64 64h-85.333334v64h85.333334v-64z" fill="#FF6600" p-id="13446"></path></svg>