<?xml version="1.0" standalone="no"?><!DOCTYPE svg PUBLIC "-//W3C//DTD SVG 1.1//EN" "http://www.w3.org/Graphics/SVG/1.1/DTD/svg11.dtd"><svg t="1774246253284" class="icon" viewBox="0 0 1024 1024" version="1.1" xmlns="http://www.w3.org/2000/svg" p-id="10060" xmlns:xlink="http://www.w3.org/1999/xlink" width="16" height="16"><path d="M863.158857 455.643429c-121.088-80.859429-248.612571-92.928-248.612571-92.928s6.436571 184.649143-8.448 240.566857c-0.402286 7.643429-9.252571 59.136-33.792 123.904a425.910857 425.910857 0 0 1-30.976 63.963428c-32.182857 58.331429-70.4 100.169143-70.4 100.169143 94.134857-38.217143 161.316571-72.813714 243.382857-137.984 96.548571-76.032 180.224-199.936 148.845714-297.691428z" fill="#37E1BE" p-id="10061"></path><path d="M368.822857 420.790857c124.342857-79.250286 242.578286-61.952 245.394286-58.733714a1.243429 1.243429 0 0 0 0.804571 0.402286c0-11.264-5.229714-47.872-10.459428-83.675429-9.252571-47.872-17.700571-98.157714-18.102857-104.996571-133.961143-109.421714-280.393143-61.549714-352 20.114285-48.274286 55.113143-81.261714 133.558857-80.457143 176.201143v339.126857c0.402286-10.057143 1.206857-16.091429 1.609143-16.091428 14.08-154.88 213.211429-272.347429 213.211428-272.347429z" fill="#A569FF" p-id="10062"></path><path d="M731.977143 324.022857c-32.987429-34.157714-68.754286-69.558857-96.146286-98.523428-26.148571-27.355429-46.665143-47.908571-49.481143-51.492572 0.402286 6.838857 8.850286 57.124571 18.102857 104.96 5.229714 35.84 10.057143 72.850286 10.459429 83.712 0 0 127.524571 12.068571 248.612571 92.891429-0.365714 0-65.572571-63.122286-131.547428-131.510857zM541.696 790.674286c-2.011429 0.804571-156.086857 84.077714-229.668571-24.137143-16.530286-24.137143-24.978286-53.504-26.185143-83.675429-2.413714-58.733714 4.022857-179.017143 82.870857-262.290285 0 0-199.131429 117.467429-212.809143 272.347428-0.365714 0.402286-1.609143 6.436571-1.609143 16.091429-0.804571 25.746286 3.657143 77.238857 33.792 121.892571 41.033143 61.549714 151.661714 109.019429 257.865143 67.181714l26.148571-7.643428c-0.804571 0.402286 37.412571-41.033143 69.595429-99.766857z" fill="#1E37FC" p-id="10063"></path></svg>