<?xml version="1.0" standalone="no"?><!DOCTYPE svg PUBLIC "-//W3C//DTD SVG 1.1//EN" "http://www.w3.org/Graphics/SVG/1.1/DTD/svg11.dtd"><svg t="1770722019534" class="icon" viewBox="0 0 1024 1024" version="1.1" xmlns="http://www.w3.org/2000/svg" p-id="12513" width="16" height="16" xmlns:xlink="http://www.w3.org/1999/xlink"><path d="M1024 912a32 32 0 0 1-32 32H32a32 32 0 0 1-32-32v-480a31.2 31.2 0 0 1 6.4-18.016l-0.48-0.32 224-320 0.48 0.32A31.36 31.36 0 0 1 256 80h512a31.36 31.36 0 0 1 25.6 13.984l0.48-0.32 224 320-0.48 0.32a31.2 31.2 0 0 1 6.4 18.016v480z m-960-32h896v-416h-205.888l-86.656 144.48-0.48-0.288A31.52 31.52 0 0 1 640 624h-256a31.52 31.52 0 0 1-26.976-15.808l-0.448 0.288L269.888 464H64v416z m687.328-736H272.672l-179.2 256H288a31.52 31.52 0 0 1 26.976 15.808l0.48-0.256 86.656 144.448h219.776l86.688-144.448 0.448 0.256A31.52 31.52 0 0 1 736 400h194.528z" fill="#6EA3E5" p-id="12514"></path></svg>