<?xml version="1.0" standalone="no"?><!DOCTYPE svg PUBLIC "-//W3C//DTD SVG 1.1//EN" "http://www.w3.org/Graphics/SVG/1.1/DTD/svg11.dtd"><svg t="1728542744900" class="icon" viewBox="0 0 1024 1024" version="1.1" xmlns="http://www.w3.org/2000/svg" p-id="2637" width="16" height="16" xmlns:xlink="http://www.w3.org/1999/xlink"><path d="M512 0c-176.448 0-320 143.552-320 320l0 96-48 0c-44.096 0-80 35.904-80 80l0 448c0 44.096 35.904 80 80 80l736 0c44.096 0 80-35.904 80-80l0-448c0-44.096-35.904-80-80-80l-48 0 0-96c0-176.448-143.552-320-320-320zM224 320c0-158.784 129.216-288 288-288s288 129.216 288 288l0 96-96 0 0-96c0-105.888-86.112-192-192-192s-192 86.112-192 192l0 96-96 0 0-96zM672 416l-320 0 0-96c0-88.224 71.776-160 160-160s160 71.776 160 160l0 96zM457.376 672l-160 160-146.752 0 160-160 146.752 0zM649.376 672l-160 160-146.752 0 160-160 146.752 0zM841.376 672l-160 160-146.752 0 160-160 146.752 0zM928 672l0 160-201.376 0 160-160 41.376 0zM105.376 832l-9.376 0 0-160 169.376 0-160 160zM880 992l-736 0c-26.464 0-48-21.536-48-48l0-80 832 0 0 80c0 26.464-21.536 48-48 48zM928 496l0 144-832 0 0-144c0-26.464 21.536-48 48-48l736 0c26.464 0 48 21.536 48 48z" fill="#000000" p-id="2638"></path></svg>